<svg id="svg" version="1.1" xmlns="http://www.w3.org/2000/svg" xmlns:xlink="http://www.w3.org/1999/xlink" width="400" height="400" viewBox="0, 0, 400,400"><g id="svgg"><path id="path0" d="M199.143 78.514 C 180.966 80.247,169.543 96.474,169.534 120.577 C 169.523 146.786,182.387 162.470,203.906 162.487 C 225.275 162.504,239.100 144.319,237.750 117.969 C 236.355 90.708,222.267 76.311,199.143 78.514 M125.077 84.082 C 123.606 86.284,118.916 93.447,114.656 100.000 C 103.125 117.733,97.610 126.053,95.369 129.093 L 93.359 131.819 93.359 138.115 C 93.359 146.631,91.055 145.703,112.206 145.703 C 121.786 145.703,129.902 145.810,130.241 145.940 C 130.772 146.144,130.859 147.136,130.859 152.971 C 130.859 161.923,130.284 161.330,138.965 161.322 C 143.449 161.318,145.815 161.161,146.484 160.823 L 147.461 160.330 147.656 153.114 L 147.852 145.898 152.930 145.703 C 159.514 145.450,158.984 146.082,158.984 138.476 C 158.984 130.479,159.310 130.859,152.452 130.859 L 147.656 130.859 147.656 106.224 C 147.656 89.990,147.518 81.332,147.252 80.834 C 146.869 80.118,146.340 80.078,137.300 80.078 L 127.752 80.078 125.077 84.082 M279.987 80.762 C 279.381 81.448,263.951 104.951,257.027 115.733 C 254.988 118.908,251.606 123.863,249.512 126.744 L 245.703 131.983 245.703 138.018 C 245.703 146.644,243.307 145.689,265.234 145.804 L 283.398 145.898 283.594 153.060 C 283.841 162.120,283.088 161.409,292.267 161.251 C 300.900 161.103,300.147 161.867,300.391 153.009 L 300.586 145.898 305.444 145.788 C 311.728 145.646,311.328 146.141,311.328 138.489 C 311.328 130.465,311.648 130.859,305.145 130.859 L 300.391 130.859 300.391 106.115 C 300.391 82.640,300.354 81.338,299.676 80.725 C 298.565 79.719,280.877 79.752,279.987 80.762 M209.260 94.985 C 216.857 97.828,220.282 106.801,219.812 122.634 C 219.320 139.205,213.603 147.713,203.320 147.179 C 193.276 146.657,188.171 138.992,187.607 123.584 C 186.807 101.725,195.740 89.927,209.260 94.985 M130.727 130.731 C 130.649 130.809,126.167 130.826,120.767 130.769 L 110.948 130.664 120.806 115.967 L 130.664 101.271 130.766 115.930 C 130.823 123.993,130.805 130.653,130.727 130.731 M283.594 116.016 L 283.594 130.859 273.419 130.859 L 263.245 130.859 267.218 125.098 C 269.403 121.929,273.890 115.249,277.188 110.254 C 280.486 105.259,283.276 101.172,283.389 101.172 C 283.502 101.172,283.594 107.852,283.594 116.016 M180.627 169.599 C 173.408 170.395,169.922 174.970,169.922 183.647 L 169.922 188.248 154.004 188.362 L 138.086 188.477 136.091 189.529 C 133.210 191.049,131.744 192.411,130.547 194.680 L 129.492 196.680 129.492 231.641 L 129.492 266.602 130.590 268.838 C 132.278 272.276,135.712 274.812,139.971 275.766 C 142.318 276.292,256.932 276.319,259.699 275.794 C 264.321 274.917,267.894 272.227,269.761 268.219 L 270.695 266.211 270.695 231.641 L 270.695 197.070 269.767 195.077 C 268.622 192.618,266.769 190.733,264.237 189.453 L 262.305 188.477 246.432 188.363 L 230.560 188.249 230.392 183.284 C 230.149 176.109,227.864 172.252,222.673 170.257 C 220.426 169.394,187.199 168.874,180.627 169.599 M219.368 177.971 C 221.592 179.026,222.266 180.594,222.266 184.714 L 222.266 188.281 199.946 188.281 L 177.626 188.281 177.823 184.831 C 178.051 180.836,178.588 179.477,180.429 178.237 L 181.756 177.344 199.901 177.344 C 215.755 177.344,218.213 177.423,219.368 177.971 M258.560 196.059 C 260.233 196.298,260.906 196.620,261.783 197.601 L 262.891 198.840 262.890 208.502 C 262.889 219.309,262.781 219.839,260.137 221.949 C 258.402 223.335,258.142 223.389,233.160 227.550 C 222.119 229.389,212.690 230.993,212.207 231.114 C 211.342 231.331,211.328 231.278,211.328 227.607 C 211.328 220.360,211.255 220.313,200.209 220.313 C 188.974 220.313,188.672 220.502,188.672 227.546 C 188.672 230.942,188.606 231.283,187.988 231.096 C 187.612 230.983,177.723 229.304,166.013 227.366 C 135.332 222.289,137.471 223.575,137.195 210.029 C 136.959 198.416,137.395 196.750,140.842 196.092 C 142.884 195.702,255.837 195.671,258.560 196.059 M203.711 234.413 L 203.711 240.820 200.098 240.933 L 196.484 241.045 196.484 234.464 L 196.484 227.883 200.098 227.944 L 203.711 228.005 203.711 234.413 M140.430 230.684 C 141.504 230.969,146.338 231.841,151.172 232.623 C 159.107 233.907,184.947 238.363,187.598 238.905 C 188.626 239.115,188.672 239.224,188.672 241.476 C 188.672 247.124,190.635 248.580,198.514 248.772 C 208.976 249.027,211.280 247.745,211.453 241.572 C 211.492 240.196,211.611 239.068,211.719 239.065 C 211.826 239.063,216.309 238.284,221.680 237.336 C 227.051 236.387,237.246 234.625,244.336 233.420 C 256.866 231.291,260.779 230.519,262.222 229.895 C 263.446 229.365,263.061 264.135,261.824 265.870 C 259.916 268.544,264.496 268.359,200.221 268.359 C 137.254 268.359,140.749 268.480,138.672 266.230 L 137.695 265.172 137.500 247.425 C 137.328 231.752,137.373 229.707,137.891 229.923 C 138.213 230.057,139.355 230.400,140.430 230.684 M148.059 282.140 C 141.865 285.275,146.876 293.929,153.324 291.234 C 158.419 289.106,156.440 281.652,150.781 281.652 C 149.814 281.652,148.589 281.872,148.059 282.140 M200.684 282.844 C 199.814 283.350,199.606 326.012,200.469 326.875 C 200.761 327.167,202.205 327.344,204.297 327.344 C 208.083 327.344,208.594 327.070,208.594 325.044 L 208.594 323.682 209.668 324.710 C 216.923 331.650,229.541 327.007,232.260 316.397 C 235.962 301.951,222.310 289.807,210.958 297.447 L 208.984 298.775 208.984 291.212 C 208.984 282.070,209.159 282.417,204.562 282.434 C 202.805 282.440,201.060 282.625,200.684 282.844 M174.609 295.359 C 166.223 296.709,161.533 302.505,161.527 311.523 C 161.520 322.608,169.474 329.489,180.342 327.799 C 199.248 324.860,199.352 298.344,180.469 295.333 C 177.624 294.879,177.590 294.879,174.609 295.359 M245.918 295.523 C 238.817 297.319,235.608 303.082,238.489 308.864 C 240.098 312.092,242.718 313.453,249.629 314.652 C 253.517 315.326,255.230 316.001,255.617 317.010 C 257.428 321.730,247.911 323.437,245.219 318.875 L 244.454 317.578 240.769 317.578 C 236.580 317.578,236.408 317.708,237.113 320.327 C 239.743 330.095,260.931 330.777,264.093 321.197 C 266.321 314.447,262.546 309.984,252.930 307.999 C 247.733 306.927,246.350 306.190,246.170 304.401 C 245.826 300.978,252.954 300.444,255.336 303.714 C 256.120 304.791,256.121 304.791,259.532 304.507 C 263.596 304.168,263.773 303.942,262.310 300.952 C 260.064 296.361,252.505 293.858,245.918 295.523 M146.992 296.013 C 146.642 296.235,146.494 300.634,146.406 313.359 L 146.289 330.407 145.360 331.396 C 144.643 332.159,143.973 332.411,142.430 332.501 L 140.430 332.617 140.316 336.097 C 140.178 340.330,140.231 340.391,143.981 340.295 C 149.041 340.164,152.415 338.053,154.375 333.789 C 155.435 331.485,156.049 297.459,155.052 296.258 C 154.550 295.653,147.879 295.450,146.992 296.013 M180.970 302.882 C 187.354 305.613,187.412 317.422,181.055 320.355 C 174.584 323.342,168.566 316.970,170.282 308.951 C 171.400 303.730,176.364 300.911,180.970 302.882 M220.177 303.734 C 225.687 306.933,224.907 318.062,219.018 320.288 C 213.727 322.287,208.799 318.059,208.801 311.523 C 208.804 304.265,214.442 300.405,220.177 303.734 " stroke="none" fill="#edd5b9" fill-rule="evenodd"></path><path id="path1" d="M0.000 200.000 L 0.000 400.000 200.000 400.000 L 400.000 400.000 400.000 200.000 L 400.000 0.000 200.000 0.000 L 0.000 0.000 0.000 200.000 M211.244 78.746 C 227.250 82.052,237.000 96.547,237.764 118.172 C 238.738 145.749,225.890 162.305,203.516 162.305 C 183.773 162.305,171.611 149.426,169.497 126.279 C 166.620 94.785,185.396 73.407,211.244 78.746 M146.929 80.434 L 147.852 81.181 147.960 106.020 L 148.069 130.859 152.866 130.859 C 159.531 130.859,159.180 130.449,159.180 138.236 C 159.180 146.242,159.495 145.850,152.916 146.036 L 148.047 146.174 148.047 152.722 C 148.047 158.755,147.983 159.351,147.237 160.299 L 146.428 161.328 139.512 161.328 C 130.151 161.328,130.859 162.001,130.859 153.103 L 130.859 146.094 113.502 146.094 C 91.308 146.094,93.374 146.927,93.365 137.975 L 93.359 131.613 95.850 128.209 C 98.392 124.733,100.383 121.730,112.868 102.539 C 125.552 83.041,127.530 80.113,128.125 79.944 C 130.341 79.316,146.055 79.726,146.929 80.434 M299.889 80.580 C 300.541 81.233,300.591 82.863,300.671 105.971 L 300.756 130.664 305.634 130.859 C 311.900 131.110,311.523 130.635,311.523 138.287 C 311.523 146.238,311.835 145.853,305.261 146.028 L 300.391 146.157 300.391 153.135 C 300.391 161.989,301.080 161.328,291.838 161.328 C 282.903 161.328,283.594 162.020,283.594 153.064 L 283.594 146.094 266.041 146.094 C 243.628 146.094,245.718 146.925,245.709 138.009 L 245.703 131.682 248.284 128.243 C 251.134 124.447,254.695 119.102,269.884 95.825 C 275.518 87.190,280.424 80.043,280.787 79.942 C 282.884 79.356,299.212 79.902,299.889 80.580 M200.171 94.485 C 192.847 96.374,188.904 103.269,187.832 116.063 C 186.154 136.092,192.939 148.262,205.166 147.154 C 215.196 146.244,220.522 135.531,219.773 117.773 C 219.036 100.332,211.627 91.529,200.171 94.485 M120.813 116.046 L 110.963 130.859 120.911 130.859 L 130.859 130.859 130.859 116.016 C 130.859 107.852,130.815 101.185,130.762 101.202 C 130.708 101.218,126.231 107.898,120.813 116.046 M279.276 107.324 C 277.070 110.708,272.657 117.284,269.469 121.938 C 266.280 126.592,263.672 130.504,263.672 130.630 C 263.672 130.756,268.110 130.859,273.535 130.859 L 283.398 130.859 283.398 116.015 C 283.398 107.851,283.373 101.172,283.343 101.172 C 283.312 101.172,281.482 103.940,279.276 107.324 M223.528 170.622 C 228.640 173.139,230.469 176.608,230.469 183.787 L 230.469 188.249 246.582 188.363 C 265.857 188.499,266.822 188.768,269.809 194.851 L 270.898 197.070 270.898 231.641 L 270.898 266.211 270.047 268.054 C 268.778 270.802,266.004 273.546,263.177 274.852 L 260.742 275.977 199.992 275.977 L 139.241 275.977 136.638 274.695 C 134.984 273.881,133.395 272.702,132.280 271.461 C 129.105 267.930,129.267 270.192,129.386 231.027 L 129.492 196.289 130.551 194.487 C 133.936 188.730,134.810 188.497,153.574 188.363 L 169.452 188.249 169.597 183.480 C 169.803 176.694,171.718 172.975,176.176 170.701 C 178.942 169.290,180.408 169.205,200.790 169.271 L 220.916 169.336 223.528 170.622 M180.983 178.095 C 178.677 179.153,178.125 180.437,178.125 184.746 L 178.125 188.281 200.195 188.281 L 222.266 188.281 222.265 185.059 C 222.264 181.434,221.622 179.688,219.796 178.348 C 218.127 177.123,183.592 176.898,180.983 178.095 M139.496 196.639 C 137.648 197.663,137.529 198.380,137.514 208.509 C 137.496 220.514,137.972 221.768,143.092 223.226 C 144.833 223.722,186.957 230.867,188.073 230.855 C 188.315 230.853,188.513 229.367,188.568 227.136 C 188.738 220.298,189.334 219.922,200.000 219.922 C 210.735 219.922,211.692 220.570,211.710 227.855 C 211.715 229.748,211.857 231.210,212.027 231.106 C 212.196 231.001,222.436 229.225,234.781 227.159 C 265.074 222.089,262.864 223.573,262.881 208.288 C 262.891 199.355,262.652 197.964,260.892 196.731 C 259.644 195.857,141.069 195.767,139.496 196.639 M196.484 234.375 L 196.484 240.625 200.000 240.625 L 203.516 240.625 203.516 234.375 L 203.516 228.125 200.000 228.125 L 196.484 228.125 196.484 234.375 M153.984 282.267 C 156.574 283.606,157.086 287.772,154.947 290.105 C 151.555 293.807,145.313 291.567,145.313 286.648 C 145.313 282.377,149.806 280.106,153.984 282.267 M208.516 282.891 C 208.849 283.224,208.984 285.607,208.984 291.128 L 208.984 298.898 210.251 297.832 C 221.371 288.475,237.061 302.669,232.043 317.546 C 228.734 327.357,216.559 331.479,209.880 325.049 C 208.733 323.945,208.661 323.979,208.520 325.684 L 208.398 327.148 204.746 327.261 C 199.483 327.424,200.000 329.860,200.000 304.913 C 200.000 280.101,199.536 282.422,204.492 282.422 C 206.736 282.422,208.220 282.595,208.516 282.891 M182.151 295.505 C 190.011 297.552,194.664 303.559,194.603 311.582 C 194.450 331.872,164.940 334.376,161.228 314.414 C 159.003 302.450,170.147 292.378,182.151 295.505 M256.641 296.040 C 260.367 297.461,263.281 300.631,263.281 303.263 C 263.281 305.111,256.498 305.475,255.203 303.697 C 253.229 300.987,246.941 300.976,246.262 303.682 C 245.726 305.815,247.019 306.717,251.953 307.652 C 260.083 309.193,263.418 311.309,264.442 315.577 C 266.787 325.355,254.128 331.686,242.765 326.419 C 237.738 324.088,234.511 317.583,238.379 317.575 C 239.292 317.573,240.946 317.462,242.053 317.329 C 244.040 317.091,244.080 317.107,244.983 318.508 C 247.707 322.736,256.434 322.237,255.786 317.890 C 255.568 316.423,253.814 315.592,248.859 314.608 C 240.317 312.910,237.500 310.499,237.500 304.883 C 237.500 297.053,247.358 292.499,256.641 296.040 M155.045 296.250 C 155.379 296.651,155.469 301.490,155.386 314.511 L 155.273 332.227 154.179 334.456 C 152.329 338.222,149.181 340.150,144.273 340.521 C 140.372 340.816,140.234 340.665,140.234 336.085 L 140.234 332.422 142.205 332.422 C 143.777 332.422,144.370 332.228,145.135 331.463 L 146.094 330.504 146.094 313.859 C 146.094 303.132,146.238 296.946,146.498 296.459 C 147.019 295.485,154.264 295.308,155.045 296.250 M174.805 303.082 C 167.948 306.247,168.849 318.946,176.053 320.675 C 181.644 322.016,185.553 318.229,185.543 311.478 C 185.533 304.634,180.303 300.545,174.805 303.082 M212.672 303.693 C 207.773 306.629,207.491 315.750,212.193 319.157 C 218.801 323.943,225.872 316.791,223.253 307.970 C 221.891 303.383,216.693 301.282,212.672 303.693 " stroke="none" fill="#10100f" fill-rule="evenodd"></path><path id="path2" d="M137.500 247.032 L 137.500 264.338 138.387 265.665 C 140.335 268.581,135.244 268.358,199.974 268.359 C 265.103 268.359,260.076 268.589,261.923 265.536 C 262.660 264.316,263.434 229.688,262.724 229.688 C 262.615 229.688,261.949 229.949,261.244 230.269 C 260.538 230.589,255.654 231.564,250.391 232.436 C 245.127 233.308,234.377 235.156,226.503 236.542 C 218.628 237.928,212.080 239.063,211.952 239.063 C 211.824 239.063,211.719 239.776,211.719 240.647 C 211.719 247.248,209.521 248.825,200.318 248.827 C 190.787 248.829,188.625 247.491,188.520 241.529 C 188.479 239.252,188.411 239.075,187.500 238.897 C 186.963 238.792,182.832 238.074,178.320 237.301 C 173.809 236.527,168.271 235.560,166.016 235.151 C 163.760 234.742,157.022 233.606,151.044 232.626 C 145.065 231.646,139.572 230.593,138.837 230.286 L 137.500 229.727 137.500 247.032 " stroke="none" fill="#b55508" fill-rule="evenodd"></path><path id="path3" d="M131.543 79.978 C 133.315 80.051,136.216 80.051,137.988 79.978 C 139.761 79.906,138.311 79.847,134.766 79.847 C 131.221 79.847,129.771 79.906,131.543 79.978 M283.105 79.975 C 284.233 80.054,286.079 80.054,287.207 79.975 C 288.335 79.897,287.412 79.832,285.156 79.832 C 282.900 79.832,281.978 79.897,283.105 79.975 M300.572 102.344 C 300.572 113.623,300.622 118.237,300.683 112.598 C 300.744 106.958,300.744 97.729,300.683 92.090 C 300.622 86.450,300.572 91.064,300.572 102.344 M147.840 106.445 C 147.840 119.766,147.889 125.271,147.949 118.681 C 148.009 112.090,148.009 101.191,147.949 94.462 C 147.889 87.732,147.840 93.125,147.840 106.445 M300.531 126.563 C 300.531 128.604,300.597 129.438,300.678 128.418 C 300.758 127.397,300.758 125.728,300.678 124.707 C 300.597 123.687,300.531 124.521,300.531 126.563 M159.140 138.281 C 159.140 141.396,159.200 142.671,159.274 141.113 C 159.349 139.556,159.349 137.007,159.274 135.449 C 159.200 133.892,159.140 135.166,159.140 138.281 M311.483 138.281 C 311.483 141.396,311.544 142.671,311.618 141.113 C 311.692 139.556,311.692 137.007,311.618 135.449 C 311.544 133.892,311.483 135.166,311.483 138.281 M104.030 145.996 C 108.718 146.058,116.276 146.058,120.827 145.996 C 125.378 145.933,121.543 145.882,112.305 145.882 C 103.066 145.882,99.343 145.933,104.030 145.996 M147.829 146.206 C 147.723 146.483,147.689 149.603,147.754 153.140 L 147.872 159.570 147.960 152.851 L 148.047 146.131 150.488 145.992 L 152.930 145.854 150.476 145.778 C 148.777 145.726,147.963 145.858,147.829 146.206 M256.570 145.996 C 261.364 146.058,269.099 146.058,273.757 145.996 C 278.415 145.933,274.492 145.882,265.039 145.883 C 255.586 145.883,251.775 145.934,256.570 145.996 M301.469 145.979 C 301.955 146.073,302.658 146.069,303.032 145.972 C 303.405 145.874,303.008 145.797,302.148 145.802 C 301.289 145.806,300.983 145.886,301.469 145.979 M194.849 195.996 C 198.354 196.060,203.979 196.060,207.349 195.995 C 210.719 195.930,207.852 195.877,200.977 195.877 C 194.102 195.878,191.344 195.931,194.849 195.996 M270.872 209.570 C 270.872 214.941,270.927 217.193,270.995 214.574 C 271.062 211.954,271.062 207.560,270.995 204.808 C 270.928 202.056,270.873 204.199,270.872 209.570 M195.996 220.213 C 198.198 220.283,201.802 220.283,204.004 220.213 C 206.206 220.144,204.404 220.087,200.000 220.087 C 195.596 220.087,193.794 220.144,195.996 220.213 M270.883 242.578 C 270.883 252.354,270.934 256.353,270.996 251.465 C 271.058 246.577,271.058 238.579,270.996 233.691 C 270.934 228.804,270.883 232.803,270.883 242.578 M188.398 228.516 C 188.398 229.697,188.472 230.181,188.561 229.590 C 188.651 228.999,188.651 228.032,188.561 227.441 C 188.472 226.851,188.398 227.334,188.398 228.516 M146.254 310.938 C 146.254 314.697,146.313 316.235,146.385 314.355 C 146.456 312.476,146.456 309.399,146.385 307.520 C 146.313 305.640,146.254 307.178,146.254 310.938 M170.020 311.523 C 170.025 312.383,170.105 312.688,170.198 312.202 C 170.292 311.717,170.288 311.013,170.190 310.640 C 170.092 310.267,170.016 310.664,170.020 311.523 M242.094 317.464 C 242.580 317.557,243.283 317.554,243.657 317.456 C 244.030 317.358,243.633 317.282,242.773 317.286 C 241.914 317.290,241.608 317.370,242.094 317.464 " stroke="none" fill="#676057" fill-rule="evenodd"></path><path id="path4" d="M143.657 79.964 C 144.143 80.057,144.846 80.054,145.219 79.956 C 145.593 79.858,145.195 79.782,144.336 79.786 C 143.477 79.790,143.171 79.870,143.657 79.964 M291.324 79.977 C 292.675 80.054,294.784 80.053,296.011 79.976 C 297.238 79.898,296.133 79.836,293.555 79.837 C 290.977 79.837,289.973 79.901,291.324 79.977 M283.379 115.625 C 283.379 123.037,283.431 126.069,283.495 122.363 C 283.560 118.657,283.560 112.593,283.495 108.887 C 283.431 105.181,283.379 108.213,283.379 115.625 M169.258 120.703 C 169.258 121.885,169.331 122.368,169.420 121.777 C 169.510 121.187,169.510 120.220,169.420 119.629 C 169.331 119.038,169.258 119.521,169.258 120.703 M153.423 145.979 C 153.908 146.073,154.612 146.069,154.985 145.972 C 155.358 145.874,154.961 145.797,154.102 145.802 C 153.242 145.806,152.937 145.886,153.423 145.979 M195.410 169.430 C 196.860 169.505,199.233 169.505,200.684 169.430 C 202.134 169.355,200.947 169.294,198.047 169.294 C 195.146 169.294,193.960 169.355,195.410 169.430 M204.590 169.423 C 205.288 169.510,206.431 169.510,207.129 169.423 C 207.827 169.337,207.256 169.266,205.859 169.266 C 204.463 169.266,203.892 169.337,204.590 169.423 M169.676 184.375 C 169.676 186.631,169.740 187.554,169.819 186.426 C 169.898 185.298,169.898 183.452,169.819 182.324 C 169.740 181.196,169.676 182.119,169.676 184.375 M177.866 185.547 C 177.866 187.158,177.935 187.817,178.019 187.012 C 178.103 186.206,178.103 184.888,178.019 184.082 C 177.935 183.276,177.866 183.936,177.866 185.547 M154.422 195.996 C 160.829 196.056,171.201 196.056,177.469 195.996 C 183.738 195.936,178.496 195.886,165.820 195.886 C 153.145 195.886,148.016 195.936,154.422 195.996 M219.263 195.995 C 222.660 196.061,228.109 196.060,231.372 195.995 C 234.635 195.930,231.855 195.877,225.195 195.877 C 218.535 195.877,215.865 195.930,219.263 195.995 M238.184 195.979 C 238.667 196.072,239.458 196.072,239.941 195.979 C 240.425 195.886,240.029 195.810,239.063 195.810 C 238.096 195.810,237.700 195.886,238.184 195.979 M245.041 195.995 C 247.362 196.064,251.053 196.064,253.244 195.994 C 255.434 195.925,253.535 195.868,249.023 195.868 C 244.512 195.869,242.720 195.926,245.041 195.995 M137.275 208.203 C 137.275 212.822,137.332 214.712,137.401 212.402 C 137.470 210.093,137.470 206.313,137.401 204.004 C 137.332 201.694,137.275 203.584,137.275 208.203 M270.828 222.656 C 270.828 224.053,270.899 224.624,270.986 223.926 C 271.072 223.228,271.072 222.085,270.986 221.387 C 270.899 220.688,270.828 221.260,270.828 222.656 M211.456 227.930 C 211.458 229.434,211.529 230.001,211.613 229.191 C 211.698 228.380,211.696 227.150,211.610 226.456 C 211.524 225.763,211.455 226.426,211.456 227.930 M203.515 234.296 L 203.709 240.820 203.818 234.600 C 203.878 231.179,203.790 228.243,203.624 228.076 C 203.457 227.908,203.408 230.707,203.515 234.296 M188.388 241.016 C 188.388 241.982,188.464 242.378,188.557 241.895 C 188.650 241.411,188.650 240.620,188.557 240.137 C 188.464 239.653,188.388 240.049,188.388 241.016 M198.350 240.912 C 199.269 240.994,200.675 240.993,201.475 240.909 C 202.275 240.825,201.523 240.757,199.805 240.759 C 198.086 240.760,197.431 240.829,198.350 240.912 M270.802 261.523 C 270.806 262.383,270.886 262.688,270.979 262.202 C 271.073 261.717,271.069 261.013,270.972 260.640 C 270.874 260.267,270.797 260.664,270.802 261.523 M217.676 295.191 C 218.052 295.289,218.667 295.289,219.043 295.191 C 219.419 295.093,219.111 295.013,218.359 295.013 C 217.607 295.013,217.300 295.093,217.676 295.191 M146.192 300.977 C 146.197 301.836,146.277 302.142,146.370 301.656 C 146.463 301.170,146.460 300.467,146.362 300.093 C 146.264 299.720,146.188 300.117,146.192 300.977 M161.036 311.523 C 161.040 312.383,161.120 312.688,161.214 312.202 C 161.307 311.717,161.304 311.013,161.206 310.640 C 161.108 310.267,161.032 310.664,161.036 311.523 M185.638 311.719 C 185.638 312.471,185.718 312.778,185.816 312.402 C 185.914 312.026,185.914 311.411,185.816 311.035 C 185.718 310.659,185.638 310.967,185.638 311.719 M264.544 317.969 C 264.544 318.721,264.624 319.028,264.722 318.652 C 264.821 318.276,264.821 317.661,264.722 317.285 C 264.624 316.909,264.544 317.217,264.544 317.969 M146.250 323.242 C 146.251 326.465,146.311 327.731,146.384 326.056 C 146.458 324.382,146.457 321.745,146.383 320.197 C 146.309 318.649,146.249 320.020,146.250 323.242 " stroke="none" fill="#84847c" fill-rule="evenodd"></path></g></svg>